<svg width="200" height="18" viewBox="0 0 200 18" fill="none" xmlns="http://www.w3.org/2000/svg">
<path d="M7.10159 14.216C6.15359 14.216 5.27759 14.048 4.47359 13.712C3.68159 13.364 2.98559 12.878 2.38559 12.254C1.79759 11.63 1.34159 10.898 1.01759 10.058C0.693594 9.218 0.531594 8.3 0.531594 7.304C0.531594 6.296 0.693594 5.372 1.01759 4.532C1.34159 3.692 1.79759 2.96 2.38559 2.336C2.97359 1.712 3.66959 1.232 4.47359 0.895999C5.27759 0.547999 6.15359 0.373999 7.10159 0.373999C8.02559 0.373999 8.85359 0.536 9.58559 0.86C10.3296 1.184 10.9536 1.604 11.4576 2.12C11.9736 2.636 12.3396 3.188 12.5556 3.776L10.9356 4.514C10.6236 3.77 10.1376 3.17 9.47759 2.714C8.81759 2.246 8.02559 2.012 7.10159 2.012C6.16559 2.012 5.33159 2.234 4.59959 2.678C3.87959 3.122 3.31559 3.74 2.90759 4.532C2.49959 5.324 2.29559 6.248 2.29559 7.304C2.29559 8.348 2.49959 9.266 2.90759 10.058C3.31559 10.85 3.87959 11.468 4.59959 11.912C5.33159 12.356 6.16559 12.578 7.10159 12.578C8.02559 12.578 8.81759 12.35 9.47759 11.894C10.1376 11.426 10.6236 10.82 10.9356 10.076L12.5556 10.814C12.3396 11.402 11.9736 11.954 11.4576 12.47C10.9536 12.986 10.3296 13.406 9.58559 13.73C8.85359 14.054 8.02559 14.216 7.10159 14.216ZM19.1892 14.216C18.2532 14.216 17.4072 14 16.6512 13.568C15.8952 13.124 15.2952 12.518 14.8512 11.75C14.4072 10.982 14.1852 10.112 14.1852 9.14C14.1852 8.168 14.4012 7.304 14.8332 6.548C15.2772 5.792 15.8772 5.192 16.6332 4.748C17.3892 4.304 18.2412 4.082 19.1892 4.082C20.1252 4.082 20.9712 4.304 21.7272 4.748C22.4832 5.18 23.0772 5.774 23.5092 6.53C23.9532 7.286 24.1752 8.156 24.1752 9.14C24.1752 10.124 23.9472 11 23.4912 11.768C23.0352 12.524 22.4292 13.124 21.6732 13.568C20.9292 14 20.1012 14.216 19.1892 14.216ZM19.1892 12.596C19.7892 12.596 20.3292 12.446 20.8092 12.146C21.3012 11.846 21.6852 11.432 21.9612 10.904C22.2492 10.376 22.3932 9.788 22.3932 9.14C22.3932 8.48 22.2492 7.898 21.9612 7.394C21.6852 6.878 21.3012 6.47 20.8092 6.17C20.3292 5.858 19.7892 5.702 19.1892 5.702C18.5772 5.702 18.0252 5.858 17.5332 6.17C17.0532 6.47 16.6692 6.878 16.3812 7.394C16.0932 7.898 15.9492 8.48 15.9492 9.14C15.9492 9.788 16.0932 10.376 16.3812 10.904C16.6692 11.432 17.0532 11.846 17.5332 12.146C18.0252 12.446 18.5772 12.596 19.1892 12.596ZM26.3585 17.6V4.298H27.9965V6.386L27.7805 5.972C28.1405 5.396 28.6325 4.94 29.2565 4.604C29.8805 4.256 30.5945 4.082 31.3985 4.082C32.3105 4.082 33.1265 4.304 33.8465 4.748C34.5785 5.192 35.1545 5.798 35.5745 6.566C35.9945 7.322 36.2045 8.186 36.2045 9.158C36.2045 10.106 35.9945 10.964 35.5745 11.732C35.1545 12.5 34.5785 13.106 33.8465 13.55C33.1265 13.994 32.3045 14.216 31.3805 14.216C30.6005 14.216 29.8865 14.042 29.2385 13.694C28.6025 13.346 28.1105 12.854 27.7625 12.218L28.0325 11.93V17.6H26.3585ZM31.2545 12.596C31.8665 12.596 32.4125 12.446 32.8925 12.146C33.3725 11.846 33.7445 11.438 34.0085 10.922C34.2845 10.394 34.4225 9.806 34.4225 9.158C34.4225 8.486 34.2845 7.898 34.0085 7.394C33.7445 6.878 33.3725 6.47 32.8925 6.17C32.4125 5.858 31.8665 5.702 31.2545 5.702C30.6425 5.702 30.0905 5.852 29.5985 6.152C29.1185 6.452 28.7345 6.866 28.4465 7.394C28.1705 7.91 28.0325 8.498 28.0325 9.158C28.0325 9.806 28.1705 10.394 28.4465 10.922C28.7345 11.438 29.1185 11.846 29.5985 12.146C30.0905 12.446 30.6425 12.596 31.2545 12.596ZM38.7457 17.96C38.5297 17.96 38.3137 17.942 38.0977 17.906C37.8817 17.882 37.6777 17.828 37.4857 17.744V16.25C37.6177 16.262 37.7797 16.286 37.9717 16.322C38.1757 16.358 38.3737 16.376 38.5657 16.376C39.1297 16.376 39.5557 16.25 39.8437 15.998C40.1437 15.746 40.4257 15.32 40.6897 14.72L41.3017 13.262L41.2657 14.72L37.1257 4.298H38.9437L42.1657 12.578H41.6257L44.8297 4.298H46.6837L42.3097 15.152C42.1057 15.668 41.8417 16.142 41.5177 16.574C41.2057 17.006 40.8217 17.342 40.3657 17.582C39.9097 17.834 39.3697 17.96 38.7457 17.96ZM48.173 14V4.298H49.811V6.08L49.631 5.828C49.859 5.276 50.207 4.868 50.675 4.604C51.143 4.328 51.713 4.19 52.385 4.19H52.979V5.774H52.133C51.449 5.774 50.897 5.99 50.477 6.422C50.057 6.842 49.847 7.442 49.847 8.222V14H48.173ZM54.4659 14V4.298H56.1399V14H54.4659ZM54.4659 2.75V0.589999H56.1399V2.75H54.4659ZM63.3634 17.96C62.6794 17.96 62.0434 17.852 61.4554 17.636C60.8794 17.42 60.3814 17.12 59.9614 16.736C59.5534 16.364 59.2414 15.926 59.0254 15.422L60.5914 14.702C60.7594 15.158 61.0774 15.542 61.5454 15.854C62.0254 16.178 62.6254 16.34 63.3454 16.34C63.8974 16.34 64.3954 16.232 64.8394 16.016C65.2954 15.812 65.6554 15.5 65.9194 15.08C66.1834 14.672 66.3154 14.174 66.3154 13.586V11.408L66.6214 11.732C66.2854 12.392 65.7994 12.896 65.1634 13.244C64.5394 13.592 63.8494 13.766 63.0934 13.766C62.1814 13.766 61.3654 13.556 60.6454 13.136C59.9254 12.704 59.3614 12.122 58.9534 11.39C58.5454 10.646 58.3414 9.824 58.3414 8.924C58.3414 8.012 58.5454 7.19 58.9534 6.458C59.3614 5.726 59.9194 5.15 60.6274 4.73C61.3474 4.298 62.1634 4.082 63.0754 4.082C63.8314 4.082 64.5154 4.256 65.1274 4.604C65.7514 4.94 66.2494 5.408 66.6214 6.008L66.3694 6.458V4.298H68.0074V13.586C68.0074 14.426 67.8094 15.176 67.4134 15.836C67.0174 16.496 66.4654 17.012 65.7574 17.384C65.0614 17.768 64.2634 17.96 63.3634 17.96ZM63.2374 12.146C63.8134 12.146 64.3294 12.002 64.7854 11.714C65.2534 11.426 65.6254 11.042 65.9014 10.562C66.1774 10.07 66.3154 9.524 66.3154 8.924C66.3154 8.336 66.1774 7.796 65.9014 7.304C65.6254 6.812 65.2534 6.422 64.7854 6.134C64.3294 5.846 63.8134 5.702 63.2374 5.702C62.6494 5.702 62.1154 5.846 61.6354 6.134C61.1554 6.422 60.7774 6.812 60.5014 7.304C60.2374 7.784 60.1054 8.324 60.1054 8.924C60.1054 9.524 60.2374 10.07 60.5014 10.562C60.7774 11.042 61.1494 11.426 61.6174 11.714C62.0974 12.002 62.6374 12.146 63.2374 12.146ZM70.6026 14V0.373999H72.2766V6.188L71.9706 6.026C72.2106 5.414 72.5946 4.94 73.1226 4.604C73.6626 4.256 74.2926 4.082 75.0126 4.082C75.7086 4.082 76.3266 4.238 76.8666 4.55C77.4186 4.862 77.8506 5.294 78.1626 5.846C78.4866 6.398 78.6486 7.022 78.6486 7.718V14H76.9566V8.258C76.9566 7.718 76.8546 7.262 76.6506 6.89C76.4586 6.518 76.1886 6.23 75.8406 6.026C75.4926 5.81 75.0906 5.702 74.6346 5.702C74.1906 5.702 73.7886 5.81 73.4286 6.026C73.0686 6.23 72.7866 6.524 72.5826 6.908C72.3786 7.28 72.2766 7.73 72.2766 8.258V14H70.6026ZM84.986 14.108C84.038 14.108 83.306 13.838 82.79 13.298C82.286 12.758 82.034 11.996 82.034 11.012V5.9H80.27V4.298H80.63C81.062 4.298 81.404 4.166 81.656 3.902C81.908 3.638 82.034 3.29 82.034 2.858V2.066H83.708V4.298H85.886V5.9H83.708V10.958C83.708 11.282 83.756 11.564 83.852 11.804C83.96 12.044 84.134 12.236 84.374 12.38C84.614 12.512 84.932 12.578 85.328 12.578C85.412 12.578 85.514 12.572 85.634 12.56C85.766 12.548 85.886 12.536 85.994 12.524V14C85.838 14.036 85.664 14.06 85.472 14.072C85.28 14.096 85.118 14.108 84.986 14.108ZM98.1861 14.216C97.2261 14.216 96.3261 14.042 95.4861 13.694C94.6461 13.334 93.9081 12.836 93.2721 12.2C92.6361 11.564 92.1381 10.826 91.7781 9.986C91.4301 9.146 91.2561 8.246 91.2561 7.286C91.2561 6.326 91.4301 5.432 91.7781 4.604C92.1381 3.776 92.6361 3.044 93.2721 2.408C93.9081 1.772 94.6401 1.274 95.4681 0.913999C96.3081 0.553999 97.2141 0.373999 98.1861 0.373999C99.1461 0.373999 100.04 0.553999 100.868 0.913999C101.708 1.274 102.446 1.772 103.082 2.408C103.718 3.032 104.21 3.764 104.558 4.604C104.918 5.432 105.098 6.326 105.098 7.286C105.098 8.246 104.918 9.146 104.558 9.986C104.21 10.826 103.718 11.564 103.082 12.2C102.446 12.836 101.708 13.334 100.868 13.694C100.04 14.042 99.1461 14.216 98.1861 14.216ZM98.1861 12.812C98.9661 12.812 99.6861 12.674 100.346 12.398C101.018 12.11 101.606 11.714 102.11 11.21C102.614 10.706 103.004 10.118 103.28 9.446C103.568 8.774 103.712 8.054 103.712 7.286C103.712 6.518 103.568 5.804 103.28 5.144C103.004 4.472 102.614 3.884 102.11 3.38C101.606 2.876 101.018 2.48 100.346 2.192C99.6861 1.904 98.9661 1.76 98.1861 1.76C97.4181 1.76 96.6981 1.904 96.0261 2.192C95.3541 2.468 94.7661 2.858 94.2621 3.362C93.7581 3.866 93.3621 4.454 93.0741 5.126C92.7981 5.786 92.6601 6.506 92.6601 7.286C92.6601 8.054 92.7981 8.774 93.0741 9.446C93.3621 10.118 93.7581 10.706 94.2621 11.21C94.7661 11.714 95.3541 12.11 96.0261 12.398C96.6981 12.674 97.4181 12.812 98.1861 12.812ZM98.2941 11.066C97.5981 11.066 96.9681 10.904 96.4041 10.58C95.8521 10.244 95.4141 9.794 95.0901 9.23C94.7781 8.654 94.6221 8.006 94.6221 7.286C94.6221 6.554 94.7781 5.906 95.0901 5.342C95.4141 4.778 95.8521 4.334 96.4041 4.01C96.9561 3.686 97.5861 3.524 98.2941 3.524C98.8101 3.524 99.2781 3.614 99.6981 3.794C100.13 3.962 100.49 4.196 100.778 4.496C101.066 4.784 101.27 5.102 101.39 5.45L100.112 6.026C99.9801 5.69 99.7581 5.408 99.4461 5.18C99.1341 4.94 98.7501 4.82 98.2941 4.82C97.6341 4.82 97.0941 5.048 96.6741 5.504C96.2661 5.96 96.0621 6.554 96.0621 7.286C96.0621 8.018 96.2661 8.612 96.6741 9.068C97.0941 9.524 97.6341 9.752 98.2941 9.752C98.7261 9.752 99.0981 9.644 99.4101 9.428C99.7341 9.2 99.9681 8.912 100.112 8.564L101.39 9.14C101.27 9.488 101.066 9.812 100.778 10.112C100.49 10.4 100.13 10.634 99.6981 10.814C99.2781 10.982 98.8101 11.066 98.2941 11.066ZM110.445 14V12.776L114.153 8.762C114.885 7.982 115.467 7.34 115.899 6.836C116.343 6.332 116.667 5.882 116.871 5.486C117.075 5.09 117.177 4.67 117.177 4.226C117.177 3.494 116.961 2.93 116.529 2.534C116.097 2.138 115.527 1.94 114.819 1.94C114.099 1.94 113.487 2.15 112.983 2.57C112.479 2.978 112.131 3.56 111.939 4.316L110.337 3.902C110.493 3.182 110.781 2.558 111.201 2.03C111.621 1.502 112.143 1.094 112.767 0.805999C113.391 0.517999 114.075 0.373999 114.819 0.373999C115.635 0.373999 116.349 0.536 116.961 0.86C117.585 1.172 118.071 1.61 118.419 2.174C118.779 2.738 118.959 3.392 118.959 4.136C118.959 4.628 118.857 5.108 118.653 5.576C118.449 6.044 118.149 6.542 117.753 7.07C117.357 7.586 116.841 8.186 116.205 8.87L112.893 12.47H119.247V14H110.445ZM126.782 14.216C125.714 14.216 124.778 13.928 123.974 13.352C123.182 12.764 122.564 11.954 122.12 10.922C121.676 9.878 121.454 8.666 121.454 7.286C121.454 5.906 121.676 4.7 122.12 3.668C122.564 2.624 123.182 1.814 123.974 1.238C124.766 0.661999 125.696 0.373999 126.764 0.373999C127.832 0.373999 128.762 0.661999 129.554 1.238C130.346 1.814 130.964 2.624 131.408 3.668C131.864 4.7 132.092 5.906 132.092 7.286C132.092 8.666 131.87 9.878 131.426 10.922C130.982 11.966 130.358 12.776 129.554 13.352C128.762 13.928 127.838 14.216 126.782 14.216ZM126.782 12.578C127.502 12.578 128.126 12.362 128.654 11.93C129.182 11.486 129.59 10.868 129.878 10.076C130.178 9.284 130.328 8.354 130.328 7.286C130.328 6.218 130.178 5.288 129.878 4.496C129.59 3.704 129.176 3.092 128.636 2.66C128.108 2.228 127.484 2.012 126.764 2.012C126.044 2.012 125.42 2.228 124.892 2.66C124.364 3.092 123.95 3.704 123.65 4.496C123.362 5.288 123.218 6.218 123.218 7.286C123.218 8.342 123.362 9.266 123.65 10.058C123.95 10.85 124.364 11.468 124.892 11.912C125.432 12.356 126.062 12.578 126.782 12.578ZM134.245 14V12.776L137.953 8.762C138.685 7.982 139.267 7.34 139.699 6.836C140.143 6.332 140.467 5.882 140.671 5.486C140.875 5.09 140.977 4.67 140.977 4.226C140.977 3.494 140.761 2.93 140.329 2.534C139.897 2.138 139.327 1.94 138.619 1.94C137.899 1.94 137.287 2.15 136.783 2.57C136.279 2.978 135.931 3.56 135.739 4.316L134.137 3.902C134.293 3.182 134.581 2.558 135.001 2.03C135.421 1.502 135.943 1.094 136.567 0.805999C137.191 0.517999 137.875 0.373999 138.619 0.373999C139.435 0.373999 140.149 0.536 140.761 0.86C141.385 1.172 141.871 1.61 142.219 2.174C142.579 2.738 142.759 3.392 142.759 4.136C142.759 4.628 142.657 5.108 142.453 5.576C142.249 6.044 141.949 6.542 141.553 7.07C141.157 7.586 140.641 8.186 140.005 8.87L136.693 12.47H143.047V14H134.245ZM145.021 14V12.776L148.729 8.762C149.461 7.982 150.043 7.34 150.475 6.836C150.919 6.332 151.243 5.882 151.447 5.486C151.651 5.09 151.753 4.67 151.753 4.226C151.753 3.494 151.537 2.93 151.105 2.534C150.673 2.138 150.103 1.94 149.395 1.94C148.675 1.94 148.063 2.15 147.559 2.57C147.055 2.978 146.707 3.56 146.515 4.316L144.913 3.902C145.069 3.182 145.357 2.558 145.777 2.03C146.197 1.502 146.719 1.094 147.343 0.805999C147.967 0.517999 148.651 0.373999 149.395 0.373999C150.211 0.373999 150.925 0.536 151.537 0.86C152.161 1.172 152.647 1.61 152.995 2.174C153.355 2.738 153.535 3.392 153.535 4.136C153.535 4.628 153.433 5.108 153.229 5.576C153.025 6.044 152.725 6.542 152.329 7.07C151.933 7.586 151.417 8.186 150.781 8.87L147.469 12.47H153.823V14H145.021ZM159.43 14V0.589999H164.164C165.052 0.589999 165.832 0.757999 166.504 1.094C167.176 1.43 167.698 1.91 168.07 2.534C168.454 3.158 168.646 3.89 168.646 4.73C168.646 5.57 168.454 6.302 168.07 6.926C167.698 7.538 167.176 8.018 166.504 8.366C165.844 8.702 165.064 8.87 164.164 8.87H161.194V14H159.43ZM161.194 7.25H164.218C164.758 7.25 165.226 7.148 165.622 6.944C166.018 6.74 166.324 6.446 166.54 6.062C166.756 5.678 166.864 5.234 166.864 4.73C166.864 4.214 166.756 3.77 166.54 3.398C166.324 3.014 166.018 2.72 165.622 2.516C165.226 2.312 164.758 2.21 164.218 2.21H161.194V7.25ZM170.833 14V4.298H172.507V14H170.833ZM170.833 2.75V0.589999H172.507V2.75H170.833ZM174.007 14L177.409 9.14L174.025 4.298H176.041L178.939 8.51H177.913L180.775 4.298H182.809L179.425 9.14L182.791 14H180.775L177.913 9.788H178.921L176.059 14H174.007ZM188.41 14.216C187.474 14.216 186.64 13.994 185.908 13.55C185.176 13.106 184.6 12.5 184.18 11.732C183.76 10.952 183.55 10.082 183.55 9.122C183.55 8.15 183.754 7.286 184.162 6.53C184.582 5.774 185.146 5.18 185.854 4.748C186.574 4.304 187.378 4.082 188.266 4.082C188.986 4.082 189.622 4.214 190.174 4.478C190.738 4.73 191.212 5.078 191.596 5.522C191.992 5.954 192.292 6.452 192.496 7.016C192.712 7.568 192.82 8.144 192.82 8.744C192.82 8.876 192.808 9.026 192.784 9.194C192.772 9.35 192.754 9.5 192.73 9.644H184.774V8.204H191.758L190.966 8.852C191.074 8.228 191.014 7.67 190.786 7.178C190.558 6.686 190.222 6.296 189.778 6.008C189.334 5.72 188.83 5.576 188.266 5.576C187.702 5.576 187.186 5.72 186.718 6.008C186.25 6.296 185.884 6.71 185.62 7.25C185.368 7.778 185.266 8.408 185.314 9.14C185.266 9.848 185.374 10.472 185.638 11.012C185.914 11.54 186.298 11.954 186.79 12.254C187.294 12.542 187.84 12.686 188.428 12.686C189.076 12.686 189.622 12.536 190.066 12.236C190.51 11.936 190.87 11.552 191.146 11.084L192.55 11.804C192.358 12.248 192.058 12.656 191.65 13.028C191.254 13.388 190.78 13.676 190.228 13.892C189.688 14.108 189.082 14.216 188.41 14.216ZM195.003 14V4.298H196.641V6.08L196.461 5.828C196.689 5.276 197.037 4.868 197.505 4.604C197.973 4.328 198.543 4.19 199.215 4.19H199.809V5.774H198.963C198.279 5.774 197.727 5.99 197.307 6.422C196.887 6.842 196.677 7.442 196.677 8.222V14H195.003Z" fill="white"/>
</svg>
